<?xml version="1.0" encoding="utf-8"?>
<!-- Generator: Adobe Illustrator 22.0.0, SVG Export Plug-In . SVG Version: 6.00 Build 0)  -->
<svg version="1.1" id="Layer_1" xmlns="http://www.w3.org/2000/svg" xmlns:xlink="http://www.w3.org/1999/xlink" x="0px" y="0px"
	 viewBox="0 0 1593 1080" style="enable-background:new 0 0 1593 1080;" xml:space="preserve">
<style type="text/css">
	.st0{fill:#CCCCCC;stroke:#662D91;stroke-width:3;stroke-miterlimit:10;}
	.st1{fill:#AFCEFA;stroke:#662D91;stroke-width:2;stroke-miterlimit:10;}
	.st2{fill:#F0A25B;stroke:#662D91;stroke-width:2;stroke-miterlimit:10;}
	.st3{fill:#F0A25B;stroke:#662D91;stroke-width:1.5;stroke-miterlimit:10;}
	.st4{fill:#8CC63F;stroke:#662D91;stroke-width:1.5;stroke-miterlimit:10;}
	.st5{fill:none;}
	.st6{fill:#FFFFFF;}
	.st7{font-family:'IBMPlexSans';}
	.st8{font-size:18px;}
	.st9{font-family:'AdobeSongStd-Light-GBpc-EUC-H';}
	.st10{fill:#4CB870;stroke:#662D91;stroke-miterlimit:10;}
	.st11{fill:#68BBED;stroke:#662D91;stroke-miterlimit:10;}
	.st12{fill:#D88DCA;stroke:#6AA0FF;stroke-width:2;stroke-miterlimit:10;}
	.st13{font-size:16px;}
	.st14{fill:none;stroke:#808080;stroke-width:3;stroke-miterlimit:10;}
	.st15{fill:none;stroke:#808080;stroke-width:3;stroke-miterlimit:10;stroke-dasharray:11.8095,11.8095;}
	.st16{fill:none;stroke:#808080;stroke-width:3;stroke-miterlimit:10;stroke-dasharray:11.9216,11.9216;}
	.st17{fill:none;stroke:#808080;stroke-width:3;stroke-miterlimit:10;stroke-dasharray:12.2469,12.2469;}
	.st18{fill:none;stroke:#808080;stroke-width:3;stroke-miterlimit:10;stroke-dasharray:11.9576,11.9576;}
	.st19{fill:#F0CA9A;stroke:#662D91;stroke-width:2;stroke-miterlimit:10;}
	.st20{fill:#E8AD43;stroke:#662D91;stroke-width:2;stroke-miterlimit:10;}
	.st21{fill:#BB85A6;stroke:#662D91;stroke-miterlimit:10;}
	.st22{fill:#68BBED;stroke:#662D91;stroke-width:2;stroke-miterlimit:10;}
	.st23{fill:#96D7F4;stroke:#662D91;stroke-width:2;stroke-miterlimit:10;}
	.st24{fill:none;stroke:#662D91;stroke-width:2;stroke-miterlimit:10;}
	.st25{fill:none;stroke:#808080;stroke-width:4;stroke-miterlimit:10;}
	.st26{fill:none;stroke:#808080;stroke-width:4;stroke-miterlimit:10;stroke-dasharray:14.0195,14.0195;}
	.st27{fill:none;stroke:#808080;stroke-width:4;stroke-miterlimit:10;stroke-dasharray:11.9333,11.9333;}
	.st28{fill:none;stroke:#39B54A;stroke-width:4;stroke-miterlimit:10;}
	.st29{fill:none;stroke:#662D91;stroke-width:4;stroke-miterlimit:10;}
	.st30{fill:#39B54A;}
	.st31{font-family:'IBMPlexSans-Medium';}
	.st32{fill:#662D91;}
	.st33{fill:none;stroke:#808080;stroke-width:4;stroke-miterlimit:10;stroke-dasharray:15.0534,15.0534;}
	.st34{fill:none;stroke:#808080;stroke-width:4;stroke-miterlimit:10;stroke-dasharray:15.0717,15.0717;}
	.st35{font-size:34px;}
	.st36{fill:none;stroke:#39B54A;stroke-width:3;stroke-miterlimit:10;}
	.st37{font-family:'MyriadPro-Regular';}
	.st38{font-size:26px;}
	.st39{fill:#22B573;}
	.st40{font-size:21px;}
	.st41{fill:none;stroke:#662D91;stroke-width:3;stroke-miterlimit:10;}
	.st42{font-size:20px;}
	.st43{fill:#5594EB;}
	.st44{fill:#C7B299;stroke:#662D91;stroke-width:2;stroke-miterlimit:10;}
</style>
<path class="st0" d="M1401.9,1016.4H656.7c-56.2,0-102.2-46-102.2-102.2V280.4c0-56.2,46-102.2,102.2-102.2h745.2
	c56.2,0,102.2,46,102.2,102.2v633.8C1504,970.4,1458.1,1016.4,1401.9,1016.4z"/>
<rect x="595" y="378.1" class="st1" width="216" height="204"/>
<rect x="611.5" y="415.1" class="st1" width="216" height="204"/>
<rect x="595" y="676.1" class="st2" width="216" height="204"/>
<rect x="611.5" y="713.1" class="st2" width="216" height="204"/>
<g>
	<rect x="963.5" y="736.4" class="st1" width="438.1" height="181.4"/>
	<rect x="979.8" y="810.7" class="st3" width="90.7" height="90.7"/>
	<rect x="1112.5" y="753" class="st4" width="247.7" height="124.5"/>
	<rect x="1123" y="763.1" class="st4" width="247.7" height="124.5"/>
	<rect x="974.7" y="746.9" class="st5" width="120" height="67.5"/>
	<text transform="matrix(1 0 0 1 974.6832 760.1882)"><tspan x="0" y="0" class="st6 st7 st8">AZ3</tspan><tspan x="32.8" y="0" class="st6 st9 st8">:</tspan><tspan x="37.1" y="0" class="st6 st7 st8"> Hosting </tspan><tspan x="0" y="21.6" class="st6 st7 st8">Appliance</tspan></text>
	<rect x="1002.6" y="835.7" class="st5" width="53.9" height="53.7"/>
	<text transform="matrix(1 0 0 1 1002.5897 849.0653)"><tspan x="0" y="0" class="st6 st7 st8">Mgmt </tspan><tspan x="0" y="21.6" class="st6 st7 st8">API</tspan></text>
	<rect x="1136.1" y="776.8" class="st4" width="247.7" height="124.5"/>
	<rect x="1148.4" y="789.5" class="st10" width="86.3" height="65"/>
	<rect x="1247.7" y="789.5" class="st11" width="123.8" height="65"/>
	<rect x="1255" y="801.9" class="st5" width="109.2" height="53.7"/>
	<text transform="matrix(1 0 0 1 1270.433 815.1832)"><tspan x="0" y="0" class="st6 st7 st8">MongoDB</tspan><tspan x="-9.5" y="21.6" class="st6 st7 st8">(Secondary)</tspan></text>
	<rect x="1233.2" y="872.1" class="st5" width="47" height="26.9"/>
	<text transform="matrix(1 0 0 1 1233.2198 885.4345)" class="st6 st7 st8">VM</text>
	<rect x="1164.6" y="802.8" class="st5" width="53.9" height="53.7"/>
	<text transform="matrix(1 0 0 1 1164.6458 816.1084)"><tspan x="0" y="0" class="st6 st7 st8">DB </tspan><tspan x="0" y="21.6" class="st6 st7 st8">Agent</tspan></text>
</g>
<rect x="963.5" y="525.7" class="st1" width="438.1" height="181.4"/>
<rect x="979.8" y="600" class="st3" width="90.7" height="90.7"/>
<rect x="1112.5" y="542.4" class="st4" width="247.7" height="124.5"/>
<rect x="1123" y="552.5" class="st4" width="247.7" height="124.5"/>
<rect x="631.2" y="468.2" class="st12" width="176.6" height="128"/>
<rect x="662.4" y="525.7" class="st5" width="129.2" height="38.8"/>
<text transform="matrix(1 0 0 1 662.4044 539.0535)" class="st6 st7 st8">DBaaS Manager</text>
<rect x="619.3" y="425.6" class="st5" width="194.5" height="21.7"/>
<text transform="matrix(1 0 0 1 619.3499 437.4514)" class="st6 st7 st13">AZ1: Hosting Appliance</text>
<rect x="605" y="388.1" class="st5" width="194.5" height="21.7"/>
<text transform="matrix(1 0 0 1 605.0166 399.9696)" class="st6 st7 st13">AZ2: Hosting Appliance</text>
<rect x="974.7" y="536.2" class="st5" width="120" height="67.5"/>
<text transform="matrix(1 0 0 1 974.6832 549.5461)"><tspan x="0" y="0" class="st6 st7 st8">AZ2: Hosting </tspan><tspan x="0" y="21.6" class="st6 st7 st8">Appliance</tspan></text>
<rect x="1002.6" y="625.1" class="st5" width="53.9" height="53.7"/>
<text transform="matrix(1 0 0 1 1002.5897 638.4231)"><tspan x="0" y="0" class="st6 st7 st8">Mgmt </tspan><tspan x="0" y="21.6" class="st6 st7 st8">API</tspan></text>
<g>
	<rect x="963.5" y="315.1" class="st1" width="438.1" height="181.4"/>
	<rect x="979.8" y="389.4" class="st3" width="90.7" height="90.7"/>
	<rect x="1112.5" y="331.8" class="st4" width="247.7" height="124.5"/>
	<rect x="1123" y="341.8" class="st4" width="247.7" height="124.5"/>
	<rect x="1135.1" y="353.7" class="st4" width="247.7" height="124.5"/>
	<rect x="974.7" y="325.6" class="st5" width="120" height="67.5"/>
	<text transform="matrix(1 0 0 1 974.6832 338.9034)"><tspan x="0" y="0" class="st6 st7 st8">AZ1</tspan><tspan x="32.8" y="0" class="st6 st9 st8">: </tspan><tspan x="40.8" y="0" class="st6 st7 st8">Hosting </tspan><tspan x="0" y="21.6" class="st6 st7 st8">Appliance</tspan></text>
	<rect x="1002.6" y="414.5" class="st5" width="53.9" height="53.7"/>
	<text transform="matrix(1 0 0 1 1002.5897 427.781)"><tspan x="0" y="0" class="st6 st7 st8">Mgmt </tspan><tspan x="0" y="21.6" class="st6 st7 st8">API</tspan></text>
	<rect x="1147.4" y="365.9" class="st10" width="86.3" height="65"/>
	<rect x="1246.7" y="365.9" class="st11" width="123.8" height="65"/>
	<rect x="1269.3" y="380.1" class="st5" width="109.2" height="53.7"/>
	<text transform="matrix(1 0 0 1 1269.3063 393.4558)"><tspan x="0" y="0" class="st6 st7 st8">MongoDB</tspan><tspan x="0" y="21.6" class="st6 st7 st8">(Primary)</tspan></text>
	<rect x="1232.2" y="448.5" class="st5" width="47" height="26.9"/>
	<text transform="matrix(1 0 0 1 1232.2015 461.7823)" class="st6 st7 st8">VM</text>
	<rect x="1163.6" y="379.1" class="st5" width="53.9" height="53.7"/>
	<text transform="matrix(1 0 0 1 1163.6274 392.4558)"><tspan x="0" y="0" class="st6 st7 st8">DB </tspan><tspan x="0" y="21.6" class="st6 st7 st8">Agent</tspan></text>
</g>
<rect x="622.8" y="806" class="st5" width="193.3" height="18.2"/>
<text transform="matrix(1 0 0 1 622.8263 819.2861)"><tspan x="0" y="0" class="st6 st7 st8">AZx</tspan><tspan x="31.1" y="0" class="st6 st9 st8">：</tspan><tspan x="49.1" y="0" class="st6 st7 st8"> Hosting Manager</tspan></text>
<rect x="603.8" y="681.9" class="st5" width="207.2" height="24.6"/>
<text transform="matrix(1 0 0 1 603.8191 695.2233)"><tspan x="0" y="0" class="st6 st7 st8">AZx</tspan><tspan x="31.1" y="0" class="st6 st9 st8">：</tspan><tspan x="49.1" y="0" class="st6 st7 st8"> Hosting Manager</tspan></text>
<g>
	<g>
		<polyline class="st14" points="844.7,951.7 844.7,957.7 838.7,957.7 		"/>
		<line class="st15" x1="826.9" y1="957.7" x2="596.6" y2="957.7"/>
		<polyline class="st14" points="590.7,957.7 584.7,957.7 584.7,951.7 		"/>
		<line class="st16" x1="584.7" y1="939.8" x2="584.7" y2="302"/>
		<polyline class="st14" points="584.7,296 584.7,290 590.7,290 		"/>
		<line class="st15" x1="602.5" y1="290" x2="832.8" y2="290"/>
		<polyline class="st14" points="838.7,290 844.7,290 844.7,296 		"/>
		<line class="st16" x1="844.7" y1="307.9" x2="844.7" y2="945.7"/>
	</g>
</g>
<g>
	<g>
		<polyline class="st14" points="1456.9,951.7 1456.9,957.7 1450.9,957.7 		"/>
		<line class="st17" x1="1438.7" y1="957.7" x2="930.4" y2="957.7"/>
		<polyline class="st14" points="924.3,957.7 918.3,957.7 918.3,951.7 		"/>
		<line class="st18" x1="918.3" y1="939.7" x2="918.3" y2="252.2"/>
		<polyline class="st14" points="918.3,246.2 918.3,240.2 924.3,240.2 		"/>
		<line class="st17" x1="936.6" y1="240.2" x2="1444.8" y2="240.2"/>
		<polyline class="st14" points="1450.9,240.2 1456.9,240.2 1456.9,246.2 		"/>
		<line class="st18" x1="1456.9" y1="258.2" x2="1456.9" y2="945.7"/>
	</g>
</g>
<rect x="72.7" y="151.7" class="st19" width="226" height="56"/>
<rect x="447.7" y="151.7" class="st19" width="118.8" height="56"/>
<rect x="126.3" y="251.4" class="st20" width="118.8" height="56"/>
<rect x="328.9" y="251.4" class="st20" width="155.1" height="56"/>
<rect x="253.5" y="504.2" class="st21" width="118.8" height="56"/>
<path class="st22" d="M380.7,736.4c0,5.4-31.8,15.4-63.6,15.3s-63.6-10.1-63.6-15.3c0-10.4,0-75.8,0-75.8h127.1
	C380.7,660.5,380.7,725.5,380.7,736.4z"/>
<ellipse class="st23" cx="317.1" cy="660.5" rx="63.6" ry="17.2"/>
<path class="st24" d="M305.1,51c-15.1-3.3-28.5-6.7-39.1,0c-10.7,6.7-9.3,22-9.3,22s-16.7-3.3-18,8.7s12.7,16,12.7,16
	s-14.2,1.5-10,15.3c7.3,15.7,24,6.7,24,6.7s3.6,10,12,13.3c20,7.8,29.9-4.3,29.9-4.3s8.3,13.7,34.1,11c10.3-1.8,15.3-6.7,17.3-14
	c0,0,29.3,6.7,38-4c8.7-10.7,4.7-20.7,4.7-20.7s8,2.7,15.3,0.7s8.7-10.5,8.7-16s-4.6-9.1-9-11c0,0,9-8.8,3.7-18.3
	c-3.3-6-13.5-4.7-13.5-4.7s-3.8-11.3-15.1-13.3c-11.3-2-24.6,6-24.6,6s-2.1-7.7-15.4-8.7C337.9,34.7,332,47,332,47
	s-3.4-11.5-15.4-9.1S305.1,51,305.1,51z"/>
<g>
	<g>
		<polyline class="st25" points="918.3,138.5 918.3,146 910.8,146 		"/>
		<line class="st26" x1="896.8" y1="146" x2="707.5" y2="146"/>
		<polyline class="st25" points="700.5,146 693,146 693,138.5 		"/>
		<line class="st27" x1="693" y1="126.6" x2="693" y2="84.8"/>
		<polyline class="st25" points="693,78.9 693,71.4 700.5,71.4 		"/>
		<line class="st26" x1="714.5" y1="71.4" x2="903.8" y2="71.4"/>
		<polyline class="st25" points="910.8,71.4 918.3,71.4 918.3,78.9 		"/>
		<line class="st27" x1="918.3" y1="90.8" x2="918.3" y2="132.6"/>
	</g>
</g>
<line class="st28" x1="719.5" y1="96.7" x2="776.3" y2="96.7"/>
<line class="st29" x1="719.5" y1="118.7" x2="776.3" y2="118.7"/>
<rect x="790.3" y="91.4" class="st5" width="102.7" height="14.7"/>
<text transform="matrix(1 0 0 1 796.3307 104.6896)" class="st30 st31 st8">data traffic</text>
<rect x="790.3" y="115" class="st5" width="102.7" height="14.7"/>
<text transform="matrix(1 0 0 1 790.8317 128.3563)" class="st32 st31 st8">mgmt traffic</text>
<path class="st24" d="M1281.6,69.2c-15.1-3.3-28.5-6.7-39.1,0c-10.7,6.7-9.3,22-9.3,22s-16.7-3.3-18,8.7c-1.3,12,12.7,16,12.7,16
	s-14.2,1.5-10,15.3c7.3,15.7,24,6.7,24,6.7s3.6,10,12,13.3c20,7.8,29.9-4.3,29.9-4.3s8.3,13.7,34.1,11c10.3-1.8,15.3-6.7,17.3-14
	c0,0,29.3,6.7,38-4s4.7-20.7,4.7-20.7s8,2.7,15.3,0.7s8.7-10.5,8.7-16s-4.6-9.1-9-11c0,0,9-8.8,3.7-18.3c-3.3-6-13.5-4.7-13.5-4.7
	s-3.8-11.3-15.1-13.3c-11.3-2-24.6,6-24.6,6s-2.1-7.7-15.4-8.7c-13.3-1-19.2,11.3-19.2,11.3s-3.4-11.5-15.4-9.1
	S1281.6,69.2,1281.6,69.2z"/>
<g>
	<g>
		<polyline class="st25" points="525.1,1008.9 525.1,1016.4 517.6,1016.4 		"/>
		<line class="st33" x1="502.5" y1="1016.4" x2="118.6" y2="1016.4"/>
		<polyline class="st25" points="111.1,1016.4 103.6,1016.4 103.6,1008.9 		"/>
		<line class="st34" x1="103.6" y1="993.8" x2="103.6" y2="247.7"/>
		<polyline class="st25" points="103.6,240.2 103.6,232.7 111.1,232.7 		"/>
		<line class="st33" x1="126.2" y1="232.7" x2="510" y2="232.7"/>
		<polyline class="st25" points="517.6,232.7 525.1,232.7 525.1,240.2 		"/>
		<line class="st34" x1="525.1" y1="255.3" x2="525.1" y2="1001.3"/>
	</g>
</g>
<rect x="244.7" y="981.7" class="st5" width="124" height="86"/>
<text transform="matrix(1 0 0 1 274.5683 1006.8635)"><tspan x="0" y="0" class="st31 st35">IBM </tspan><tspan x="-13" y="40.8" class="st31 st35">Cloud</tspan></text>
<g>
	<g>
		<polyline class="st36" points="238.6,87.8 180.2,87.8 180.2,135.5 		"/>
		<g>
			<polygon class="st30" points="170.3,132.6 180.2,149.7 190.1,132.6 			"/>
		</g>
	</g>
</g>
<g>
	<g>
		<polyline class="st36" points="425.2,87.8 507.1,87.8 507.1,135.5 		"/>
		<g>
			<polygon class="st30" points="497.2,132.6 507.1,149.7 516.9,132.6 			"/>
		</g>
	</g>
</g>
<g>
	<g>
		<line class="st36" x1="183.2" y1="309.4" x2="183.2" y2="340.9"/>
		<g>
			<polygon class="st30" points="177.5,339.2 183.2,349.1 188.9,339.2 			"/>
		</g>
	</g>
</g>
<g>
	<g>
		<line class="st36" x1="180.2" y1="208.4" x2="180.2" y2="242.2"/>
		<g>
			<polygon class="st30" points="174.5,240.5 180.2,250.4 185.9,240.5 			"/>
		</g>
	</g>
</g>
<g>
	<g>
		<line class="st36" x1="406.5" y1="116.4" x2="406.5" y2="237.5"/>
		<g>
			<polygon class="st30" points="397.5,234.8 406.5,250.4 415.5,234.8 			"/>
		</g>
	</g>
</g>
<g>
	<g>
		<line class="st36" x1="406.5" y1="309.4" x2="406.5" y2="340.9"/>
		<g>
			<polygon class="st30" points="400.8,339.2 406.5,349.1 412.2,339.2 			"/>
		</g>
	</g>
</g>
<g>
	<g>
		<polyline class="st36" points="545.9,209.4 545.9,370.6 498.2,370.6 		"/>
		<g>
			<polygon class="st30" points="501.1,360.7 484,370.6 501.1,380.5 			"/>
		</g>
	</g>
</g>
<rect x="660" y="979.4" class="st5" width="144.8" height="23"/>
<text transform="matrix(1 0 0 1 659.9771 997.8524)" class="st37 st38">Mgmt Nodes</text>
<rect x="1105" y="979.4" class="st5" width="183.1" height="23"/>
<text transform="matrix(1 0 0 1 1104.9867 997.8524)" class="st37 st38">Worker Nodes</text>
<rect x="1241.4" y="96.9" class="st5" width="184.3" height="49.7"/>
<text transform="matrix(1 0 0 1 1241.4165 112.4098)" class="st39 st7 st40">DB User Access</text>
<g>
	<g>
		<line class="st36" x1="1302.7" y1="158.2" x2="1302.7" y2="341"/>
		<g>
			<polygon class="st30" points="1293.7,338.3 1302.7,353.9 1311.7,338.3 			"/>
		</g>
	</g>
</g>
<g>
	<g>
		<line class="st41" x1="630.5" y1="533.2" x2="385.2" y2="533.2"/>
		<g>
			<polygon class="st32" points="387.8,524.2 372.3,533.2 387.8,542.2 			"/>
		</g>
	</g>
</g>
<rect x="295.6" y="524.4" class="st5" width="37.5" height="15.7"/>
<text transform="matrix(1 0 0 1 295.6151 539.1771)" class="st6 st7 st42">IAM</text>
<rect x="67.9" y="159.7" class="st5" width="234" height="61"/>
<text transform="matrix(1 0 0 1 135.604 174.4724)"><tspan x="0" y="0" class="st7 st42">IBM CLoud</tspan><tspan x="-54.9" y="24" class="st7 st42">CLI/Catalog Dashboard</tspan></text>
<rect x="443.2" y="160.2" class="st5" width="127.8" height="46.3"/>
<text transform="matrix(1 0 0 1 458.505 175.0308)"><tspan x="0" y="0" class="st7 st42">DBaaS API </tspan><tspan x="22.4" y="24" class="st7 st42">Client</tspan></text>
<rect x="153.7" y="271.7" class="st5" width="62.4" height="16.3"/>
<text transform="matrix(1 0 0 1 153.7005 286.5172)" class="st6 st7 st42">Broker</text>
<rect x="348.6" y="258.7" class="st5" width="115.7" height="41.3"/>
<text transform="matrix(1 0 0 1 376.7481 273.5383)"><tspan x="0" y="0" class="st6 st7 st42">DBaaS </tspan><tspan x="-19.1" y="24" class="st6 st7 st42">Dashboard</tspan></text>
<rect x="280.6" y="77.5" class="st5" width="144.6" height="49.7"/>
<text transform="matrix(1 0 0 1 280.601 93.0765)" class="st43 st7 st40">DBA Access</text>
<g>
	<g>
		<polyline class="st41" points="630.5,560.2 505,560.2 505,699.4 394.9,699.4 		"/>
		<g>
			<polygon class="st32" points="397.8,689.5 380.7,699.4 397.8,709.2 			"/>
		</g>
	</g>
</g>
<g>
	<g>
		<polyline class="st36" points="305.2,353.7 305.2,420.5 725.7,420.5 725.7,454 		"/>
		<g>
			<polygon class="st30" points="715.8,451.1 725.7,468.2 735.6,451.1 			"/>
		</g>
	</g>
</g>
<g>
	<rect x="126.3" y="349.1" class="st44" width="357.7" height="43"/>
	<rect x="237" y="362.4" class="st5" width="128.7" height="16.3"/>
	<text transform="matrix(1 0 0 1 236.9784 377.2218)" class="st6 st7 st42">Load Balancer</text>
</g>
<g>
	<g>
		<line class="st41" x1="719.5" y1="597.3" x2="719.5" y2="663.2"/>
		<g>
			<polygon class="st32" points="710.5,660.5 719.5,676.1 728.5,660.5 			"/>
		</g>
	</g>
</g>
<g>
	<g>
		<line class="st41" x1="1070.5" y1="433.6" x2="1135.6" y2="404.4"/>
		<g>
			<polygon class="st32" points="1136.8,413.6 1147.3,399.1 1129.5,397.3 			"/>
		</g>
	</g>
</g>
<g>
	<g>
		<line class="st41" x1="1070.5" y1="854.5" x2="1136.4" y2="826.6"/>
		<g>
			<polygon class="st32" points="1137.5,835.9 1148.3,821.5 1130.5,819.3 			"/>
		</g>
	</g>
</g>
<g>
	<g>
		<line class="st41" x1="828.4" y1="804.8" x2="974.5" y2="434.5"/>
		<g>
			<polygon class="st32" points="981.9,440.2 979.3,422.4 965.2,433.6 			"/>
		</g>
	</g>
</g>
<g>
	<g>
		<line class="st41" x1="828" y1="807.3" x2="970.5" y2="652.8"/>
		<g>
			<polygon class="st32" points="975.3,660.8 979.3,643.3 962.1,648.7 			"/>
		</g>
	</g>
</g>
<g>
	<g>
		<line class="st41" x1="827.9" y1="808.7" x2="967.1" y2="856.2"/>
		<g>
			<polygon class="st32" points="961.8,863.8 979.4,860.3 967.6,846.8 			"/>
		</g>
	</g>
</g>
<rect x="1136.1" y="566.3" class="st4" width="247.7" height="124.5"/>
<rect x="1148.4" y="579.3" class="st10" width="86.3" height="65"/>
<rect x="1247.7" y="579.3" class="st11" width="123.8" height="65"/>
<rect x="1254" y="592.5" class="st5" width="109.2" height="53.7"/>
<text transform="matrix(1 0 0 1 1269.4147 605.8477)"><tspan x="0" y="0" class="st6 st7 st8">MongoDB</tspan><tspan x="-9.5" y="21.6" class="st6 st7 st8">(Secondary)</tspan></text>
<rect x="1233.2" y="661.9" class="st5" width="47" height="26.9"/>
<text transform="matrix(1 0 0 1 1233.2015 675.1736)" class="st6 st7 st8">VM</text>
<rect x="1164.6" y="592.5" class="st5" width="53.9" height="53.7"/>
<text transform="matrix(1 0 0 1 1164.6274 605.8477)"><tspan x="0" y="0" class="st6 st7 st8">DB </tspan><tspan x="0" y="21.6" class="st6 st7 st8">Agent</tspan></text>
<g>
	<g>
		<line class="st41" x1="1070.3" y1="643.5" x2="1136.4" y2="616.7"/>
		<g>
			<polygon class="st32" points="1137.4,626 1148.4,611.8 1130.6,609.3 			"/>
		</g>
	</g>
</g>
<g>
	<g>
		<polyline class="st36" points="1384.7,399 1447,399 1447,825.4 1384.7,825.4 		"/>
		<g>
			<polygon class="st30" points="1387.6,408.9 1370.5,399 1387.6,389.1 			"/>
		</g>
		<g>
			<polygon class="st30" points="1387.6,815.5 1370.5,825.4 1387.6,835.2 			"/>
		</g>
	</g>
</g>
<g>
	<g>
		<line class="st36" x1="1447" y1="612.4" x2="1384.9" y2="612.4"/>
		<g>
			<polygon class="st30" points="1387.8,602.5 1370.7,612.4 1387.8,622.3 			"/>
		</g>
	</g>
</g>
<rect x="261.6" y="699.3" class="st5" width="113" height="16.3"/>
<text transform="matrix(1 0 0 1 261.6073 714.094)" class="st6 st7 st42">Cloudant DB</text>
</svg>
